<?xml version="1.0" encoding="UTF-8"?>
<svg width="571px" height="330px" viewBox="0 0 571 330" version="1.1" xmlns="http://www.w3.org/2000/svg" xmlns:xlink="http://www.w3.org/1999/xlink">
    <!-- Generator: Sketch 50.2 (55047) - http://www.bohemiancoding.com/sketch -->
    <title>Group 11</title>
    <desc>Created with Sketch.</desc>
    <defs></defs>
    <g id="Page-1" stroke="none" stroke-width="1" fill="none" fill-rule="evenodd">
        <g id="Group-13" transform="translate(-111.000000, -233.000000)" fill="#FFFFFF">
            <g id="Group-11" transform="translate(110.000000, 233.000000)">
                <text id="ACTION-DESIGN-LATAM" font-family="Cocogoose" font-size="46" font-weight="normal" letter-spacing="0.5344325">
                    <tspan x="0" y="329">ACTION DESIGN LATAM </tspan>
                </text>
                <g id="Group-10" transform="translate(295.000000, 123.000000) scale(-1, -1) rotate(90.000000) translate(-295.000000, -123.000000) translate(172.000000, -92.000000)">
                    <path d="M181.50578,205.289782 L136.398844,173.481438 L181.50578,141.673094 L226.609827,173.481438 L181.50578,205.289782 Z M226.609827,255.996433 L181.50289,287.808854 L136.398844,255.996433 L181.50578,224.188089 L226.609827,255.996433 Z M226.609827,338.515505 L181.50578,370.327925 L136.398844,338.515505 L181.50289,306.70716 L226.609827,338.515505 Z M123,347.964658 L168.106936,379.777078 L123,411.585423 L77.8930636,379.777078 L123,347.964658 Z M19.3901734,338.515505 L123,265.445586 L168.106936,297.258007 L64.4942197,370.327925 L19.3901734,338.515505 Z M19.3901734,255.996433 L64.4942197,224.188089 L109.601156,255.996433 L64.4942197,287.808854 L19.3901734,255.996433 Z M123,246.551356 L77.8930636,214.738936 L123,182.926515 L168.106936,214.738936 L123,246.551356 Z M19.3901734,173.481438 L123,100.41152 L168.106936,132.223941 L64.4942197,205.289782 L19.3901734,173.481438 Z M19.3901734,90.9664431 L123,17.8965249 L226.609827,90.9664431 L181.50289,122.774787 L125.679191,83.4046748 C123.991329,82.2184351 122.008671,82.2184351 120.320809,83.4046748 L64.4971098,122.774787 L19.3901734,90.9664431 Z M242.684971,165.923746 L194.901734,132.223941 L242.684971,98.5241351 C244.716763,97.0933099 246,94.1664368 246,90.9664431 C246,87.7664495 244.716763,84.8395764 242.684971,83.4046748 L125.679191,0.889679758 C123.991329,-0.296559919 122.008671,-0.296559919 120.320809,0.889679758 L3.31213873,83.4046748 C1.28323699,84.8395764 0,87.7664495 0,90.9664431 C0,94.1664368 1.28323699,97.0933099 3.31213873,98.5241351 L51.0982659,132.223941 L3.31213873,165.923746 C1.28323699,167.354571 0,170.281445 0,173.481438 C0,176.681432 1.28323699,179.608305 3.31213873,181.043207 L51.0982659,214.738936 L3.31213873,248.438741 C1.28323699,249.869566 0,252.796439 0,255.996433 C0,259.196427 1.28323699,262.1233 3.31213873,263.558202 L51.0953757,297.258007 L3.31213873,330.957813 C1.28323699,332.392714 0,335.315511 0,338.515505 C0,341.719575 1.28323699,344.642371 3.31213873,346.077273 L51.0982659,379.777078 C91.6543271,408.379277 114.576319,424.458328 119.864241,428.01423 C121.832912,429.338077 123.980723,429.33388 125.897063,428.001641 C131.024155,424.437287 154.025712,408.362433 194.901734,379.777078 L242.684971,346.077273 C244.716763,344.642371 246,341.719575 246,338.515505 C246,335.315511 244.716763,332.392714 242.684971,330.957813 L194.901734,297.258007 L242.684971,263.558202 C244.716763,262.1233 246,259.196427 246,255.996433 C246,252.796439 244.716763,249.869566 242.684971,248.438741 L194.901734,214.738936 L242.684971,181.043207 C244.716763,179.608305 246,176.681432 246,173.481438 C246,170.281445 244.716763,167.354571 242.684971,165.923746 Z" id="Fill-9"></path>
                </g>
            </g>
        </g>
    </g>
</svg>